<?xml version="1.0" encoding="UTF-8"?>
<svg xmlns="http://www.w3.org/2000/svg" xmlns:xlink="http://www.w3.org/1999/xlink" width="50px" height="71px" viewBox="0 0 50 71" version="1.1">
<g id="surface1">
<path style=" stroke:none;fill-rule:nonzero;fill:rgb(93.333333%,30.196078%,17.647059%);fill-opacity:1;" d="M 33.375 38.457031 C 33.089844 40.894531 31.613281 42.867188 29.324219 43.84375 C 28.042969 44.382812 26.328125 44.679688 24.957031 44.589844 C 22.84375 44.503906 20.863281 43.980469 19.015625 43.050781 C 18.375 42.699219 17.386719 42.039062 16.636719 41.421875 C 16.453125 41.246094 16.421875 41.15625 16.554688 40.976562 C 16.613281 40.867188 16.746094 40.671875 17.015625 40.277344 C 17.429688 39.695312 17.472656 39.617188 17.515625 39.542969 C 17.648438 39.351562 17.851562 39.335938 18.058594 39.484375 C 18.089844 39.515625 18.089844 39.515625 18.105469 39.527344 C 18.132812 39.558594 18.132812 39.558594 18.207031 39.617188 C 18.285156 39.675781 18.34375 39.707031 18.355469 39.738281 C 20.339844 41.289062 22.644531 42.167969 24.972656 42.257812 C 28.203125 42.214844 30.527344 40.761719 30.953125 38.515625 C 31.394531 36.074219 29.46875 33.941406 25.703125 32.753906 C 24.515625 32.398438 21.53125 31.207031 20.980469 30.875 C 18.398438 29.363281 17.1875 27.378906 17.363281 24.921875 C 17.625 21.519531 20.785156 18.988281 24.777344 18.96875 C 26.550781 18.96875 28.339844 19.335938 30.035156 20.050781 C 30.644531 20.308594 31.734375 20.902344 32.097656 21.183594 C 32.316406 21.34375 32.363281 21.519531 32.230469 21.71875 C 32.183594 21.839844 32.050781 22.015625 31.824219 22.402344 C 31.496094 22.90625 31.484375 22.925781 31.421875 23.039062 C 31.304688 23.222656 31.136719 23.238281 30.914062 23.105469 C 29.101562 21.871094 27.058594 21.257812 24.824219 21.210938 C 22.050781 21.257812 19.964844 22.910156 19.832031 25.171875 C 19.804688 27.207031 21.324219 28.6875 24.613281 29.804688 C 31.308594 31.960938 33.859375 34.480469 33.375 38.457031 M 25.121094 3.359375 C 29.46875 3.359375 33.019531 7.484375 33.199219 12.652344 L 17.054688 12.652344 C 17.210938 7.484375 20.773438 3.359375 25.121094 3.359375 M 47.660156 13.632812 C 47.660156 13.09375 47.242188 12.652344 46.707031 12.652344 L 36.238281 12.652344 C 35.972656 5.832031 31.089844 0.378906 25.121094 0.378906 C 19.144531 0.378906 14.277344 5.832031 14.015625 12.652344 L 3.539062 12.652344 C 3.011719 12.664062 2.59375 13.097656 2.59375 13.632812 C 2.59375 13.664062 2.59375 13.679688 2.59375 13.707031 L 2.582031 13.707031 L 4.070312 46.613281 C 4.070312 46.703125 4.089844 46.792969 4.089844 46.898438 C 4.089844 46.921875 4.089844 46.925781 4.089844 46.964844 L 4.089844 47.015625 L 4.101562 47.035156 C 4.328125 49.328125 5.984375 51.15625 8.25 51.246094 L 8.25 51.265625 L 41.492188 51.265625 C 41.507812 51.265625 41.519531 51.265625 41.535156 51.265625 C 41.5625 51.265625 41.5625 51.265625 41.582031 51.265625 L 41.648438 51.265625 L 41.648438 51.246094 C 43.945312 51.191406 45.828125 49.328125 46.007812 47.007812 L 46.019531 46.964844 C 46.019531 46.945312 46.019531 46.921875 46.019531 46.898438 C 46.019531 46.832031 46.035156 46.789062 46.035156 46.722656 L 47.660156 13.679688 C 47.660156 13.664062 47.660156 13.648438 47.660156 13.632812 "/>
<path style=" stroke:none;fill-rule:nonzero;fill:rgb(93.333333%,30.196078%,17.647059%);fill-opacity:1;" d="M 44.066406 62.429688 C 44.355469 61.519531 45.171875 60.933594 46.136719 60.933594 C 47.078125 60.933594 47.960938 61.5625 48.25 62.429688 L 48.296875 62.480469 L 44.058594 62.480469 Z M 49.214844 63.730469 C 49.226562 63.730469 49.226562 63.730469 49.246094 63.730469 C 49.261719 63.730469 49.261719 63.730469 49.261719 63.730469 C 49.453125 63.726562 49.621094 63.535156 49.621094 63.34375 C 49.621094 63.320312 49.621094 63.296875 49.617188 63.296875 C 49.621094 63.296875 49.621094 63.296875 49.621094 63.273438 C 49.621094 61.277344 48.058594 59.691406 46.136719 59.691406 C 44.214844 59.691406 42.671875 61.277344 42.671875 63.273438 C 42.671875 63.425781 42.671875 63.578125 42.699219 63.726562 L 42.703125 63.730469 L 42.714844 63.773438 C 42.8125 64.476562 43.105469 65.121094 43.585938 65.652344 C 44.117188 66.246094 44.835938 66.660156 45.652344 66.804688 L 45.703125 66.804688 C 45.75 66.804688 45.757812 66.804688 45.796875 66.816406 C 46.855469 66.949219 47.808594 66.804688 48.589844 66.402344 C 48.78125 66.300781 48.972656 66.179688 49.117188 66.082031 C 49.164062 66.035156 49.214844 65.992188 49.261719 65.980469 C 49.261719 65.941406 49.285156 65.941406 49.304688 65.941406 C 49.464844 65.746094 49.492188 65.6875 49.367188 65.507812 C 49.261719 65.3125 49.164062 65.171875 49.070312 65.027344 C 49.019531 64.980469 49.011719 64.929688 48.972656 64.910156 C 48.972656 64.882812 48.972656 64.882812 48.972656 64.882812 C 48.96875 64.882812 48.96875 64.882812 48.960938 64.882812 C 48.859375 64.738281 48.78125 64.738281 48.683594 64.832031 C 48.679688 64.832031 48.636719 64.882812 48.636719 64.882812 C 47.867188 65.554688 46.808594 65.785156 45.769531 65.554688 C 45.574219 65.507812 45.410156 65.449219 45.222656 65.363281 C 44.585938 65.027344 44.117188 64.449219 43.972656 63.777344 L 43.972656 63.730469 Z M 35.796875 62.429688 C 36.085938 61.519531 36.902344 60.933594 37.871094 60.933594 C 38.816406 60.933594 39.691406 61.5625 39.984375 62.429688 L 40.027344 62.480469 L 35.796875 62.480469 Z M 40.953125 63.730469 C 40.964844 63.730469 40.964844 63.730469 40.988281 63.730469 C 41.183594 63.726562 41.359375 63.535156 41.359375 63.34375 C 41.359375 63.320312 41.359375 63.296875 41.359375 63.296875 C 41.359375 63.296875 41.359375 63.296875 41.359375 63.273438 C 41.359375 61.277344 39.789062 59.691406 37.867188 59.691406 C 35.957031 59.691406 34.402344 61.277344 34.402344 63.273438 C 34.402344 63.425781 34.402344 63.578125 34.441406 63.726562 L 34.441406 63.730469 L 34.449219 63.773438 C 34.546875 64.476562 34.835938 65.121094 35.316406 65.652344 C 35.84375 66.246094 36.566406 66.660156 37.382812 66.804688 L 37.433594 66.804688 C 37.476562 66.804688 37.496094 66.804688 37.527344 66.816406 C 38.585938 66.949219 39.546875 66.804688 40.316406 66.402344 C 40.511719 66.300781 40.703125 66.179688 40.84375 66.082031 C 40.894531 66.035156 40.941406 65.992188 40.988281 65.980469 C 40.988281 65.941406 41.027344 65.941406 41.039062 65.941406 C 41.207031 65.746094 41.230469 65.6875 41.105469 65.507812 C 40.988281 65.3125 40.894531 65.171875 40.796875 65.027344 C 40.75 64.980469 40.75 64.929688 40.703125 64.910156 C 40.703125 64.882812 40.703125 64.882812 40.703125 64.882812 C 40.703125 64.882812 40.703125 64.882812 40.699219 64.882812 C 40.597656 64.738281 40.507812 64.738281 40.414062 64.832031 L 40.363281 64.882812 C 39.59375 65.554688 38.535156 65.785156 37.507812 65.554688 C 37.3125 65.507812 37.144531 65.449219 36.949219 65.363281 C 36.324219 65.027344 35.84375 64.449219 35.703125 63.777344 L 35.699219 63.730469 Z M 29.496094 65.699219 C 28.199219 65.699219 27.140625 64.691406 27.101562 63.390625 L 27.101562 63.269531 C 27.140625 62 28.199219 60.96875 29.496094 60.96875 C 30.796875 60.96875 31.867188 62.03125 31.867188 63.34375 C 31.867188 64.640625 30.796875 65.699219 29.496094 65.699219 M 29.496094 59.703125 C 28.632812 59.703125 27.828125 59.992188 27.1875 60.523438 L 27.101562 60.601562 L 27.101562 59.929688 C 27.101562 59.738281 27.078125 59.703125 26.890625 59.703125 L 26.066406 59.703125 C 25.878906 59.703125 25.847656 59.738281 25.847656 59.929688 L 25.847656 70.488281 C 25.847656 70.652344 25.878906 70.699219 26.066406 70.699219 L 26.890625 70.699219 C 27.074219 70.699219 27.101562 70.652344 27.101562 70.488281 L 27.101562 66.082031 L 27.1875 66.132812 C 27.832031 66.660156 28.632812 66.949219 29.496094 66.949219 C 31.515625 66.949219 33.148438 65.332031 33.148438 63.34375 C 33.148438 61.324219 31.515625 59.703125 29.496094 59.703125 M 20.925781 65.605469 C 19.601562 65.605469 18.542969 64.566406 18.542969 63.273438 C 18.542969 61.980469 19.601562 60.941406 20.925781 60.941406 C 22.246094 60.941406 23.304688 61.980469 23.304688 63.273438 C 23.304688 64.566406 22.246094 65.605469 20.925781 65.605469 M 20.925781 59.691406 C 18.90625 59.691406 17.269531 61.277344 17.269531 63.277344 C 17.269531 65.265625 18.90625 66.851562 20.925781 66.851562 C 22.945312 66.851562 24.582031 65.265625 24.582031 63.277344 C 24.582031 61.277344 22.945312 59.691406 20.925781 59.691406 M 12.773438 59.757812 C 12.046875 59.757812 11.332031 59.988281 10.734375 60.433594 L 10.664062 60.496094 L 10.664062 55.59375 C 10.664062 55.410156 10.609375 55.363281 10.449219 55.363281 L 9.574219 55.363281 C 9.40625 55.363281 9.359375 55.410156 9.359375 55.59375 L 9.359375 66.757812 C 9.359375 66.949219 9.40625 67 9.574219 67 L 10.449219 67 C 10.609375 67 10.664062 66.941406 10.664062 66.757812 L 10.664062 63.101562 C 10.683594 61.957031 11.621094 61.035156 12.773438 61.035156 C 13.949219 61.035156 14.890625 61.96875 14.890625 63.125 L 14.890625 66.757812 C 14.890625 66.949219 14.921875 67 15.105469 67 L 15.972656 67 C 16.164062 67 16.1875 66.949219 16.1875 66.757812 L 16.1875 63.101562 C 16.1875 61.277344 14.648438 59.757812 12.773438 59.757812 M 0.652344 64.964844 L 0.652344 64.972656 C 0.523438 65.152344 0.464844 65.21875 0.441406 65.265625 C 0.34375 65.410156 0.359375 65.484375 0.511719 65.601562 C 0.847656 65.890625 1.304688 66.179688 1.605469 66.324219 C 2.445312 66.757812 3.347656 66.949219 4.316406 66.996094 C 4.933594 67.003906 5.726562 66.851562 6.304688 66.613281 C 7.363281 66.132812 8.035156 65.21875 8.148438 64.101562 C 8.335938 62.273438 7.148438 61.132812 4.085938 60.214844 C 2.652344 59.738281 1.980469 59.121094 1.980469 58.28125 C 2.027344 57.335938 2.902344 56.613281 4.085938 56.574219 C 5.03125 56.578125 5.871094 56.847656 6.707031 57.382812 C 6.882812 57.480469 6.953125 57.457031 7.074219 57.292969 C 7.09375 57.285156 7.125 57.238281 7.289062 57 C 7.433594 56.804688 7.484375 56.710938 7.484375 56.710938 C 7.585938 56.515625 7.578125 56.4375 7.390625 56.324219 C 7.21875 56.179688 6.726562 55.941406 6.449219 55.820312 C 5.65625 55.507812 4.839844 55.363281 4.035156 55.363281 C 2.195312 55.410156 0.753906 56.613281 0.65625 58.183594 C 0.605469 59.304688 1.183594 60.21875 2.386719 60.890625 C 2.722656 61.082031 3.949219 61.550781 4.527344 61.710938 C 6.160156 62.191406 7.023438 63.066406 6.835938 64.113281 C 6.6875 65.074219 5.691406 65.699219 4.308594 65.742188 C 3.296875 65.699219 2.277344 65.34375 1.398438 64.691406 C 1.394531 64.691406 1.375 64.648438 1.328125 64.640625 C 1.273438 64.59375 1.273438 64.59375 1.257812 64.589844 C 1.085938 64.449219 0.96875 64.453125 0.871094 64.640625 C 0.847656 64.640625 0.71875 64.851562 0.652344 64.964844 "/>
</g>
</svg>
