<svg width="100" height="100" viewBox="0 0 100 100" fill="none" xmlns="http://www.w3.org/2000/svg">
<g clip-path="url(#clip0_4144_103132)">
<path d="M66.8398 63.5417L72.0951 75.8698L81.1523 88.3281C82.5534 87.5209 83.7461 86.349 84.5846 84.8959L94.2096 68.2292C95.0482 66.7813 95.4648 65.1615 95.4648 63.5417L80.6836 61.9792L66.8398 63.5417Z" fill="#EA4335"/>
<path d="M33.8809 10.9531C33.8965 10.9427 33.9069 10.9271 33.9225 10.9167C33.9069 10.9271 33.8965 10.9427 33.8809 10.9531Z" fill="#00832D"/>
<path d="M34.7923 10.1823C34.7767 10.1979 34.7559 10.2083 34.7402 10.2187C34.7559 10.2083 34.7767 10.1979 34.7923 10.1823Z" fill="#00832D"/>
<path d="M33.1201 11.7812C33.1253 11.776 33.1305 11.7708 33.1357 11.7656C33.1305 11.7708 33.1253 11.776 33.1201 11.7812Z" fill="#00832D"/>
<path d="M64.3132 9.58855C62.9121 8.78126 61.3027 8.33334 59.6257 8.33334H40.3809C38.7142 8.33334 37.0892 8.79168 35.6934 9.58855L41.1413 22.25L49.9642 34.3021L50.0007 34.375L58.8965 22.1927L64.3132 9.58855Z" fill="#00832D"/>
<path d="M33.1618 63.5417L18.4066 61.4583L4.54199 63.5417C4.54199 65.1563 4.95866 66.7708 5.79199 68.224L15.417 84.8958C16.2555 86.3438 17.4482 87.5156 18.8493 88.3281L27.7503 76.5156L33.1618 63.5417Z" fill="#0066DA"/>
<path d="M80.974 35.9376L67.7448 13.0209C66.9063 11.5678 65.7135 10.3959 64.3125 9.58859L50 34.3751L66.8385 63.5417H95.4583C95.4583 61.9219 95.0417 60.3073 94.2031 58.8542L80.974 35.9376Z" fill="#FFBA00"/>
<path d="M66.8392 63.5417H33.1621L18.8496 88.3281C20.2507 89.1354 21.86 89.5834 23.5371 89.5834H76.459C78.1361 89.5834 79.7454 89.1354 81.1465 88.3281L66.8392 63.5417Z" fill="#2684FC"/>
<path d="M66.8392 63.5417H33.1621L18.8496 88.3281C20.2507 89.1354 21.86 89.5834 23.5371 89.5834H76.459C78.1361 89.5834 79.7454 89.1354 81.1465 88.3281L66.8392 63.5417Z" fill="#2684FC"/>
<path d="M50.0003 34.3751L35.693 9.58859C34.292 10.3959 33.1045 11.5626 32.2659 13.0105L5.79199 58.8698C4.95866 60.3178 4.54199 61.9323 4.54199 63.5417H33.1618L50.0003 34.3751Z" fill="#00AC47"/>
</g>
<defs>
<clipPath id="clip0_4144_103132">
<rect width="100" height="100" fill="white"/>
</clipPath>
</defs>
</svg>
